<svg width="185" height="188" viewBox="0 0 185 188" xmlns="http://www.w3.org/2000/svg">
  <!-- Black Logo (top, for .logo-dark at 0 -1px) -->
  <g transform="translate(0, 0)">
    <path d="M20 10 Q30 25 20 40 Q10 55 20 62" stroke="#000000" stroke-width="3" fill="none"/>
    <path d="M35 10 Q45 25 35 40 Q25 55 35 62" stroke="#000000" stroke-width="3" fill="none"/>
    <text x="50" y="35" font-family="Arial, sans-serif" font-size="20" fill="#000000">RECOMB</text>
    <text x="50" y="55" font-family="Arial, sans-serif" font-size="20" fill="#000000">GENBIO</text>
  </g>

  <!-- Gray Logo (middle, for .logo-gray at 0 -63px) -->
  <g transform="translate(0, 63)">
    <path d="M20 10 Q30 25 20 40 Q10 55 20 62" stroke="#808080" stroke-width="3" fill="none"/>
    <path d="M35 10 Q45 25 35 40 Q25 55 35 62" stroke="#808080" stroke-width="3" fill="none"/>
    <text x="50" y="35" font-family="Arial, sans-serif" font-size="20" fill="#808080">RECOMB</text>
    <text x="50" y="55" font-family="Arial, sans-serif" font-size="20" fill="#808080">GENBIO</text>
  </g>

  <!-- White Logo (bottom, for .logo-light at 0 -127px) -->
  <g transform="translate(0, 127)">
    <path d="M20 10 Q30 25 20 40 Q10 55 20 62" stroke="#FFFFFF" stroke-width="3" fill="none"/>
    <path d="M35 10 Q45 25 35 40 Q25 55 35 62" stroke="#FFFFFF" stroke-width="3" fill="none"/>
    <text x="50" y="35" font-family="Arial, sans-serif" font-size="20" fill="#FFFFFF">RECOMB</text>
    <text x="50" y="55" font-family="Arial, sans-serif" font-size="20" fill="#FFFFFF">GENBIO</text>
  </g>
</svg>
